/* XPM */
static char *d5c9edf9ae30400ef907b77440898855Y75BOlJv4VrpG5ON[] = {
/* columns rows colors chars-per-pixel */
"66 64 256 2 ",
"   c None",
".  c #04041D",
"X  c #0B091F",
"o  c #170E1E",
"O  c #2A161B",
"+  c #050622",
"@  c #0B0C25",
"#  c #050D2A",
"$  c #0B0E2A",
"%  c #060925",
"&  c #0D122C",
"*  c #091329",
"=  c #151629",
"-  c #051332",
";  c #041C3D",
":  c #0B1C3C",
">  c #091736",
",  c #121633",
"<  c #141A35",
"1  c #141D3C",
"2  c #110F2A",
"3  c #291B25",
"4  c #3B1C37",
"5  c #15272B",
"6  c #0C233D",
"7  c #14243D",
"8  c #192638",
"9  c #1B3837",
"0  c #0F2D2E",
"q  c #372526",
"w  c #282936",
"e  c #373538",
"r  c #2F2A32",
"t  c #2A2E1B",
"y  c #5A2B14",
"u  c #522B19",
"i  c #673516",
"p  c #763A16",
"a  c #6D2D13",
"s  c #771924",
"d  c #593829",
"f  c #463834",
"g  c #482E2B",
"h  c #6E3726",
"j  c #5E1717",
"k  c #1C432F",
"l  c #2C4C38",
"z  c #2A6F36",
"x  c #7C4319",
"c  c #6F4415",
"v  c #534733",
"b  c #6A432B",
"n  c #754828",
"m  c #684838",
"M  c #744D34",
"N  c #72562F",
"B  c #4F6126",
"V  c #031E42",
"C  c #0B1B49",
"Z  c #0B104D",
"A  c #062042",
"S  c #0B2243",
"D  c #0D274A",
"F  c #1A2342",
"G  c #132A4D",
"H  c #1C2A4C",
"J  c #162747",
"K  c #193449",
"L  c #162D51",
"P  c #192E52",
"I  c #1A2A55",
"U  c #1C3255",
"Y  c #1E3359",
"T  c #153253",
"R  c #0D2750",
"E  c #222B4C",
"W  c #242946",
"Q  c #28364A",
"!  c #3A3547",
"~  c #232E52",
"^  c #23235A",
"/  c #243254",
"(  c #22355B",
")  c #24395D",
"_  c #2B3858",
"`  c #343858",
"'  c #372A56",
"]  c #263A62",
"[  c #2B3C64",
"{  c #2B3D68",
"}  c #32356F",
"|  c #1F285D",
" . c #4C354D",
".. c #583461",
"X. c #344358",
"o. c #2B534D",
"O. c #306B4A",
"+. c #2E4169",
"@. c #2C4166",
"#. c #32436B",
"$. c #384567",
"%. c #3A4C74",
"&. c #374A74",
"*. c #3E5374",
"=. c #3D7763",
"-. c #1E574A",
";. c #484A58",
":. c #54474C",
">. c #6A564A",
",. c #42496C",
"<. c #434B75",
"1. c #42537C",
"2. c #475477",
"3. c #535978",
"4. c #4F5668",
"5. c #6C5B6A",
"6. c #576578",
"7. c #656D78",
"8. c #6F6F72",
"9. c #73675B",
"0. c #98070C",
"q. c #8D1A1C",
"w. c #971C19",
"e. c #900E0C",
"r. c #A7060B",
"t. c #AB1F16",
"y. c #962815",
"u. c #9C3817",
"i. c #842D17",
"p. c #B62319",
"a. c #B22E18",
"s. c #851921",
"d. c #A72B21",
"f. c #C82616",
"g. c #D92A15",
"h. c #C43B19",
"j. c #E62D12",
"k. c #F23010",
"l. c #F72C0F",
"z. c #FE1E10",
"x. c #864619",
"c. c #94471D",
"v. c #97561D",
"b. c #8F4E0E",
"n. c #A64A1B",
"m. c #AC591A",
"M. c #BA750E",
"N. c #A76418",
"B. c #B77616",
"V. c #AC6E18",
"C. c #874B22",
"Z. c #965423",
"A. c #8B5224",
"S. c #916935",
"D. c #AF7529",
"F. c #9E5A20",
"G. c #C47A0D",
"H. c #C47A14",
"J. c #D2720F",
"K. c #DC6021",
"L. c #845944",
"P. c #88756F",
"I. c #A56B4D",
"U. c #C36563",
"Y. c #34913E",
"T. c #4F8A34",
"R. c #4A9D3C",
"E. c #3AA946",
"W. c #399E40",
"Q. c #43B846",
"!. c #47B453",
"~. c #499167",
"^. c #4EA969",
"/. c #B8892D",
"(. c #CA8617",
"). c #D18712",
"_. c #F08F13",
"`. c #CD902E",
"'. c #9E9272",
"]. c #B78E5C",
"[. c #D0AE6E",
"{. c #D19865",
"}. c #353287",
"|. c #3224A4",
" X c #51358D",
".X c #443BA5",
"XX c #4B5C85",
"oX c #455782",
"OX c #525C85",
"+X c #515195",
"@X c #53638C",
"#X c #596586",
"$X c #5C6A94",
"%X c #596893",
"&X c #4E618D",
"*X c #646D97",
"=X c #65729B",
"-X c #6A759C",
";X c #6D708D",
":X c #534BAC",
">X c #6C77A3",
",X c #747BA8",
"<X c #6966AD",
"1X c #6D5B9D",
"2X c #7F7BC1",
"3X c #867C98",
"4X c #8678D1",
"5X c #7B838E",
"6X c #7984AB",
"7X c #7C85B3",
"8X c #888A86",
"9X c #93938B",
"0X c #98978D",
"qX c #9B9B92",
"wX c #8C8F97",
"eX c #A4A49B",
"rX c #B8A39D",
"tX c #868BB7",
"yX c #8A92B9",
"uX c #8F91B0",
"iX c #9CA5B3",
"pX c #AAACA5",
"aX c #B2B5B0",
"sX c #B0949C",
"dX c #CE9895",
"fX c #CCBAAE",
"gX c #ECB6AD",
"hX c #D5A78F",
"jX c #C7C7B9",
"kX c #DAC5AC",
"lX c #8E93C1",
"zX c #9599C7",
"xX c #918ED1",
"cX c #AC95CD",
"vX c #99A1CA",
"bX c #A6A7CD",
"nX c #A9AAD9",
"mX c #B2B4D2",
"MX c #B7B7E2",
"NX c #B7AEEC",
"BX c #A398E3",
"VX c #BBC2D9",
"CX c #C6CBC9",
"ZX c #D9D9C9",
"AX c #D2D5D3",
"SX c #ECD4C7",
"DX c #DFE1D4",
"FX c #ECECDB",
"GX c #E4E4D5",
"HX c #F6F0DE",
"JX c #C6C8E8",
"KX c #D3D0EF",
"LX c #E4E4F9",
"PX c #F5F4F2",
"IX c #DFE0F1",
"UX c #D5BCD7",
/* pixels */
"                                                                                                                                    ",
"                                                                                                                                    ",
"                                                                                                                                    ",
"                                                                                                                                    ",
"                                                                                                                                    ",
"                                      k.k.k.k.k.l.f.q.w.                                                                            ",
"                                  z.l.f.p.p.p.p.j.j.f.g.l.l.p.                                                                      ",
"                                z.l.g.p.w.w.q.q.f.j.j.j.j.K.U.5...4                                                                 ",
"                                    w.f.j.j.p.s.q.w.w.w.d.gXUXzX*X,.F                                                               ",
"                                  g.p.p.f.f.t.s.s.s.s j  .uXvXyXvXuX3XuX                                                            ",
"                                z.l.k.p.q.s.s.s.s.s.s 4 L &.@X6XJXLXLXKXsX..g                                                       ",
"                                      g.f.q.s     s 4 ` XX6XbXJXJXJXJXhX`.B.(._.b.                                                  ",
"                                      g.f.w.        I XX7XzXnXmXzXuXrX].G.).).M.N.b.                                                ",
"                                    k.p.s.        5.&.,XzX>X&X*.%.9.`.N.p A.x.p M.G.i.                                              ",
"                                              ,.,.#X,X,X$XoX] H N D.B.x y x.p y M.(.a                         _._._.m.              ",
"                                            #XoXoX=XzX$X@.;.X.v V.H.v.p i x.x p G.G.i y                   n.K.`.`.H.m.m.            ",
"                         X X<.<.          %.=XzXzXyX>XoX;.D.(.(.b.x c.x.x.Z.A.v.).G.i y             n.H._.m.L.8.;XP.(.G.S.kXPXHXgX{.",
"                      cXcXcXtX,X,X3.      Y &.=X6X>XoX{ :.(._.H.p a c.x d d d d N A.n             N.B.D.S.L.5.@X&X;X[.[.[.fXSXSXgX  ",
"                  <XBXKXIXIXMXzX>X%.L *.6.( L U { #.#.L e B.B.A.i i x g @ @ X @ 1 Q 9.          Z.N.).S.<.%X-X-X=XuXZXFXZXfXdXhX    ",
"                +XyXKXmXtX>X*X@X1.1.1.@.$.,XtX>X[ L +.{ _ v :. .3 O 3 = + + . @ ) &._ _ [ H f Z.Z.v.N.>.@XiXCXCXCXCXaXpXaXdXdX      ",
"               X>XvXVX6X%.( Y ( ( +.*.( [ >XzXyX1.U / [ +.) +.&.H & + . + + . $ OX%XG +.XX+.f x x.Z.I.9XiXDXFXZXZXjXqX'.].].U.      ",
"              .XzXlX=X1.] G S S S S G ( ) L %.$X$X$., H &.XX@X@X&.E $ + @ @ . , ,X7XU @XzX>X4.i x.I.kXGXGXFXZXeXqXqX9X].`.V.n.      ",
"              :XNXyX_ F F U Y Y U U U U J - H 1.%X,.$ & F / $.1.%.[ E E F > 7 $.yXtXU #.*X$X;X0XhXkXFXZXaXfXpX9X8.6.6.9.S.Z.n.h.    ",
"                BX*X$ . & / { #.#.#.#.U : @ F #.@X,.$ . . . 1 _ ] { #.+.) G #.>XtX-XU _ #X-XiXFXFXGXZXaX9X8X8X5X3.+.#.{ ` M n.h.    ",
"                }.^ @ . @ & E #.#.#.#.+.~ $ 1 #.@X,.$ . + . @ , S U { Y G ( $XzXXXY ] 5XCXAXGXFXjXeXeXqX8X6.,.<.#.#.#.Y H b n.h.    ",
"                Z Z # 1 < @ , ~ %.oX1._ F F _ 1.oX%._ , . . . + # : F S A G &.$X;X;XwXCXHXZXjXjXeX9X9X8X7.%.{ { ] Y Y R 7 b n.h.    ",
"                Z Z L [ / & + < <.@XXXE < [ XX$X1.1.XX_ & & $ @ + @ & : S P P X.pXFXGXGXZXeX9X9X8X8X8X7.#.{ { { L A A V 7 n n.h.    ",
"                Z } ,XOX) : F ~ E W W E _ oX6XlX=XoX1.<.<.<.E . . < $.] $.wXaXaXDXGXaXpXpXqX0X9X4.X.2.<.{ U G G S A A V 8 F.J.h.    ",
"                }.<XlXOXY L ] [ , . # ~ %.%X7XlX=X1.#.%.1.1.@.F 1 ,.wX6XwXDXHXZXZXjXqX9X8X8.8.7.;._ ( ( ( D ; V V 6 ; R X./.J.a.    ",
"              .XBXxX$X] D ] #.] , # : Y %.@X$X$X1.#.+.U D D +.@X@XwXAXGXDXFXjXqXqX0X9X9X5XX.S K 7.8.K A S A A A A A A { 7.`.J.y.    ",
"              :XKXbX+.S ; D L J $ # V G ) %.oX&.( L L A ; D #XaXmXCXHXZXfXaXpX9X0X'.;.;.X.> = f 9.9.J ; A ; ; A ) &.&.%.3./.J.e.    ",
"              :XmX5XJ L @.@.) G & - S A J _ ;.;.H V A U $.3.iXFXGXDXZXaX9X9X8X~.5X4.= 1 ( F r b b f 7 V S G L U *.$X@XoX4.D.J.e.    ",
"              }.` 8 , #XbXVXyX1.G J ) G 7 g v.D.e ; S 5XCXCXDXFXaXeXeXqX9X9X7._ / F @ 2.tX%X4.m q = : V D %.XXXX%X@X%.oX#XS.n.0.    ",
"              | + . , OXzXKXJXiX-X%.) 6.;X8.S.N.N v 4.aXHXZXjXjXeX9X9X8.6.7.2.L ; - F #XtX;X>.M :.3.XX` r :.4.oXXXoX1.oX3.M u.0.    ",
"                $ & S ( OXzXJXIXmX$X( uXKXmXP.x M.`.'.jXZXeX8X8X8X8X8X;.J ) +.) , , [ oX#X>.n m 3XbXbXP.i i d X.+.%.&XoX$.M u.r.    ",
"                > J ] { &.OXzXMX$X&.1.>XiX{.`.M.b.N.`.[.pXqX7.X._ X.X.7 % & , < % , { { _ m m ;.$.5.].`.G.G.v.d ` #.%.&.$.M u.r.    ",
"                T U ~ [ #.+.@X-X[ Y XX7.I.(.).H.x.x.M./.'.8.$.G T G > 0 k k 5 O O r E J 7 v :.( D e )._.).).N.i ! #.#.{ _ M u.r.    ",
"                  _ , ~ #.{ ( U ] +.$.S.(.N.v.v.Z.x p V./.l U #.oX$.< z E.Q.B y p h = - 7 v f J V e (.H.v.Z.x.y ! #.+.Y F n u.r.    ",
"                    o.K 1 1 : A ] ,.>.F.V.v.Z.Z.x.u q c N.v.>.#.{ [ X.o.O.Q.T.i x.p o + < d :.U D 8 v N Z.Z.x.y  .{ Y ! d p y.      ",
"                    ^.9 * 5 5 7 ` :.Z.F.F.Z.C.x u q 6 3 i V.S.+.] &.@X{ K E.T.y x.b = + = d >.X.H ; ; f Z.Z.x.y ! Y S f c.w.0.      ",
"                        Y.W.B u s i.Z.H.(.v.d 3 < 7 A 6 8 e Q &.,XtX$X] K E.T.y x.n 8 # = d M m 3 % % g Z.Z.x.y w D A f c.w.0.      ",
"                        Q.T.v a t.a.u.A.N m  .E : - - ; A R &.>XnXzX1.G 6 -.l y x.n 8 ; , q d n d 3 @ u x x.i q 8 V V f c.w.r.      ",
"                      !.T.c a w.g.f.q.4 U #.XXXXW @ $ : L { =XvXnX,XL S L T r u x b F A ; $ 3 b n d = O u y q 6 A A 7 f c.t.        ",
"                      -.B V.K.f.p.y.a ;.&X7X6X%X$.~ / #.1.XX=X,XXX) S 1.7XtX#X! r w ) L A ; , 3 d d = & 8 w 8 A V 8 d i.w.          ",
"                    #X*.5.(.J.K.y.j u ! #XyX7XXX+.] #.1.@X%X@X%.U S L *XzXlX7X-X#X*./ J A A > & :.>.= - A A V A V w C.u.0.          ",
"                %.#.1.7XwXS.H.H.x q o @ W @X&X+.G L +.#.%.@X&.G ( { +.oX%X1.6XKXIXiXW - A A ; S 7.8.< - A A V A A w n u.r.          ",
"              oXuXyX,X*X3.:.m m v ! H : > E / L U +.1.%.#.1./ - ( &.#.{ &.=XmXPXPXKX-X_ - ; V S X.X.: ; A A V S e h i.w.            ",
"            1.-XJXKXlX#.: / P G ] #.] G - + - S ] 1.%X1.{ ) K 5 E [ +.G ( 7XJXLXPXLXMX3.% > A A ; A A A A A V S v c.e.              ",
"          } yXJXJXlXoXF % & H { +.] G - + + - S ] 1.%XoX) < l Y.9 F { L L @XlXMXLXLXMX3.@ > A 6 ; V A A A A V S v c.0.              ",
"          | tXKXMX,XY > % . , H H F - 9 l o.8 > F ~ ` ~ H 9 O.Q.z k H H ( %.,XnXKXJXzX4.O > A A 6 A A A V V 7 f h u.                ",
"          C %XnXMX>XG A : * $ $ @ @ = O.^.^.o.* @ * * @ 8 ~.    Q.z < H +.#.$XvXnXzX$X:.u w S A A A A S 7 7 e C.y.                  ",
"          C %.7XnX>XD L ) / ~ H : 9 O.        O.o.o.o.o.O.      k 9 / [ #.#.%.@X>X%XE q y h f A V V V e b b h y.                    ",
"          L { XXtX=XU ] #.#.%.%.Y o.=.                          * 1 { #.#.#.+.#.1.$.$ t B x h e e e e d u.u.u.                      ",
"            L U XXXX{ { +.#.1.&X&.( D                           D J { #.#.#.+.#.#./ & z R.b a C.C.C.C.i.e.0.                        ",
"          D ; V Y / F H Y +.%.1.&.( S                         8 6 G +.#.{ U L L G L _ o.O.>.C.p p i.y.w.                            ",
"          ] ] ) U 1 # - S ) +.#.#.( :                       5 @ : L ] ] / G G L ( %.=XoX$.9.L.y j j e.                              ",
"        }.4XxXtX%X+.: # & S ( #.#.~ $                       9 @ H ) G : < / &.OX6XzXvXzXtX..g                                       ",
"      +X<XxXxX,XoX@.U H F A G ( +.E +                       O.o.E F - % @ F / $.OX;X;X;X#X'                                         ",
"    |.2XtX%X<.] J G ] { ( S ; S ) E &                         ~.9 $ $ @ @ @ $ $ $ $ $ $ $                                           ",
"      } ` W < , # & < < , $ # # & 9 O.                          O.o.X.X.Q Q Q                                                       ",
"      % + % # $ $ & & & , < 5 5 = k ~.                                                                                              ",
"                          =.=.=.                                                                                                    ",
"                                                                                                                                    ",
"                                                                                                                                    "
};
