/* XPM */
static char *_dde98d51d674713e04a95b753f3741aP3pjpgDuFjjGYSJy[] = {
/* columns rows colors chars-per-pixel */
"38 38 191 2 ",
"   c None",
".  c #191603",
"X  c #14130B",
"o  c #1B180C",
"O  c #1C1806",
"+  c #0E0F12",
"@  c #161616",
"#  c #1A1A1A",
"$  c #17181C",
"%  c #211B00",
"&  c #221F12",
"*  c #262001",
"=  c #2A2401",
"-  c #2A2509",
";  c #382E01",
":  c #292614",
">  c #282516",
",  c #302B12",
"<  c #383213",
"1  c #232324",
"2  c #272728",
"3  c #2A2A2A",
"4  c #2B2B24",
"5  c #302F26",
"6  c #39372A",
"7  c #2F2F30",
"8  c #323233",
"9  c #363738",
"0  c #3C3C3B",
"q  c #393832",
"w  c #463B03",
"e  c #423C1B",
"r  c #4E4205",
"t  c #534603",
"y  c #4A431D",
"u  c #534A1C",
"i  c #635303",
"p  c #675809",
"a  c #715D00",
"s  c #6E5F10",
"d  c #786300",
"f  c #7E6904",
"g  c #7E6A08",
"h  c #756307",
"j  c #5B5121",
"k  c #47453A",
"l  c #524E33",
"z  c #555034",
"x  c #4D4729",
"c  c #7F753D",
"v  c #766928",
"b  c #434344",
"n  c #4A4A4B",
"m  c #474849",
"M  c #565344",
"N  c #525253",
"B  c #575758",
"V  c #595A5B",
"C  c #646049",
"Z  c #626365",
"A  c #666668",
"S  c #6C6B6A",
"D  c #71706B",
"F  c #6E6F71",
"G  c #737375",
"H  c #767779",
"J  c #7C7C7D",
"K  c #816B00",
"L  c #8B7503",
"P  c #867000",
"I  c #947B00",
"U  c #987E00",
"Y  c #8C7B20",
"T  c #8B7F3F",
"R  c #857A40",
"E  c #807F7C",
"W  c #9E8301",
"Q  c #A18600",
"!  c #A68A01",
"~  c #AA8D00",
"^  c #A58C0F",
"/  c #AE9100",
"(  c #AD930E",
")  c #B49500",
"_  c #B79801",
"`  c #BC9C00",
"'  c #BC9F0C",
"]  c #A88E11",
"[  c #AC9314",
"{  c #B79D1C",
"}  c #B59B16",
"|  c #BFA004",
" . c #BDA21C",
".. c #BFA520",
"X. c #C09F00",
"o. c #C4A301",
"O. c #C8A600",
"+. c #CDAA00",
"@. c #C6A608",
"#. c #D2AE01",
"$. c #D1AF0A",
"%. c #D5B201",
"&. c #DAB500",
"*. c #DEB900",
"=. c #D4B30A",
"-. c #D9B60B",
";. c #CCAC12",
":. c #CFB11A",
">. c #DFBD19",
",. c #D8B719",
"<. c #E2BD00",
"1. c #C4A924",
"2. c #C5AC2B",
"3. c #D4B727",
"4. c #CEB534",
"5. c #D1B734",
"6. c #D7BC36",
"7. c #C4AD3A",
"8. c #E6C100",
"9. c #EBC400",
"0. c #E4C00E",
"q. c #F4CC01",
"w. c #FDD501",
"e. c #FFD904",
"r. c #FDD60A",
"t. c #FDD712",
"y. c #FDD81C",
"u. c #FBD619",
"i. c #DFC53F",
"p. c #E3C224",
"a. c #E4C42D",
"s. c #F1CF23",
"d. c #F5D42F",
"f. c #FEDC2C",
"g. c #FCD821",
"h. c #E6C732",
"j. c #EACB35",
"k. c #EACC39",
"l. c #FADA35",
"z. c #FFE02A",
"x. c #AB9B4B",
"c. c #B19E42",
"v. c #B9A958",
"b. c #8D8871",
"n. c #AEA67B",
"m. c #D7BF47",
"M. c #DDC344",
"N. c #DAC454",
"B. c #E0C644",
"V. c #E4CA46",
"C. c #E4CA49",
"Z. c #EFD141",
"A. c #EED34E",
"S. c #F1D344",
"D. c #FDDE44",
"F. c #F2D548",
"G. c #FBDE4A",
"H. c #F5D849",
"J. c #EED451",
"K. c #F1D653",
"L. c #F6DA53",
"P. c #FBDE53",
"I. c #F6DC5B",
"U. c #F8DE5E",
"Y. c #FEE14D",
"T. c #FFE142",
"R. c #FDE25B",
"E. c #FBE162",
"W. c #FCE36E",
"Q. c #FCE470",
"!. c #F8E47F",
"~. c #7F7F80",
"^. c #878788",
"/. c #A49E83",
"(. c #A09F9A",
"). c #B0AB90",
"_. c #A5A49C",
"`. c #C1BA90",
"'. c #C9C193",
"]. c #E8D887",
"[. c #F7E382",
"{. c #FDE884",
"}. c #F7E589",
"|. c #FAE997",
" X c #FFF09F",
".X c #FFF6B4",
"XX c #F1E5A3",
"oX c #EDE8CE",
"OX c #FCF4CE",
"+X c #FCF7DA",
"@X c #FDF7D6",
/* pixels */
"                          G A F G H J ^.J J ~.J ^.                          ",
"                        E q o o o o O X o o o o 5 D                         ",
"                    8 b C R Y L L P f d d d d a s C B m                     ",
"                  M : : j m.l.r.w.w.<.&.&.&.#.+./ t . % k                   ",
"                6 c c.c.7.s.t.e.e.w.q.q.q.8.&.#.o.W P K s >                 ",
"              N 0 x.E.E.Y.t.q.8.<.<.8.8.8.%.O.+.#.+.o.| I w x               ",
"            2 n _.].R.E.D.t.&./ ~ ! ! ~ ! ! ! ` #.#.+.| ) W p @             ",
"          N N b.XX{.U.B.3.=.o.) / / / / / / / ) ` ` ` o.o._ K r e           ",
"        3 0 (.XXW.E.J.{ Q Q ) +.#.#.#.#.#.#.#.) Q W ! O.+.` _ Q r X         ",
"      0 N b.].{.U.m.2.' _ _ ;.h.k.j.k.j.j.p.%.o._ ) _ ) ` O.o.) K p <       ",
"    # #     Q.I.J.1.! @.=.=.p.J.K.K.K.K.K.h.=.#.&.#.O.! ) +.O.X.` U - +     ",
"    2 #     Q.k. .' @.a.Z.Z.6...{ { { { { [ / #.9.<.#.o._ ~ ` O.o.U = $     ",
"    0 0 /. XW.5.W _ -.S.U.P.3.W I U ! ~ ~ Q W ` <.<.&.%.X.W ) #.O.Q w e     ",
"  2 n ).].W.E.5.Q _ -.S.G.g.=.W I Q #.<.8.+.W W ) <.9.&.X.W ) #.o.) Q h :   ",
"m @ m   !.L.i.1.( ;.p.d.l.r.%.W I Q <.w.w.&.Q I Q &.q.<.O.) ) X.o.o.o.K . 0 ",
"b @ Z @X{.V.[ _ $.h.G.g.r.w.%.Q I Q <.w.w.&.W I Q *.q.&.#.+._ Q X.+.X.f . b ",
"n $ F +X{.B.^ / %.k.P.y.w.w.%.W I Q <.w.w.&.W L W *.q.9.8.%._ W X.#.o.K . b ",
"m $ S @X{.B.^ / #.j.P.y.w.w.%.W I Q *.q.q.%.W W ~ <.w.w.9.%.) W ` #.o.f . b ",
"b # Z @X{.B.^ / =.k.P.y.w.w.%.W I I / ` ` / W _ *.q.w.w.q.%._ W X.#.o.f . m ",
"n @ Z   {.B.] / #.k.P.y.w.w.%.Q I W ! ! ! ! ~ %.w.w.w.w.q.%.) W X.#.o.K . n ",
"b # A OX{.C.^ / #.k.P.y.w.w.%.W I W %.8.8.8.8.q.w.w.w.w.9.&.) W o.+.O.f O n ",
"k $ F @X{.B.^ / =.k.P.y.w.w.%.W I ! *.e.e.w.e.w.w.w.w.q.8.%.) W ` #.o.f . m ",
"b @ H +X{.B.] ) $.k.P.y.w.w.%.W I W *.w.w.w.w.e.w.w.q.<.&.#._ Q | +.o.f . b ",
"0 $ H +X}.A.4. .` ,.j.d.g.e.%.Q I W <.w.e.w.w.w.w.w.q.&.+.` ) ) o.O.o.f . 0 ",
"n 3 G oX}.E.U.5.Q ` ,.S.D.t.#.W I Q <.w.e.w.e.w.w.w.q.<.X.Q ) +.o.` _ g > m ",
"  N B S '.|.W.5.W _ -.S.R.D.3.W I Q <.w.w.w.w.e.w.9.<.%.X.U ) #.o.! i u k   ",
"    7 > H .XW.6.] ' $.k.L.L.6.[ ^ ] <.t.t.r.q.q.q.<.#.+.X.! _ #.o.I = 2     ",
"    2 #     Q.K.C.1./ ;.>.>.a.B.C.C.F.G.G.d.<.<.&.&.+./ / O.X.X.o.I = 1     ",
"      9 A ).!.W.E.4.[ o.o.o.,.Z.F.F.F.F.F.a.&.+.O.O.X.~ ) +.O._ Q K e       ",
"        7 k   |.E.I.C.} Q Q _ =.-.-.-.-.-.=.#.` Q Q ! X.O.X.X.~ t :         ",
"          b V n.[.Q.L.:.` X.` ` ` ` ` ` ` ` ` ) ~ ) _ #.$.` U a u           ",
"            4 m   }.P.g.q.q.&.! U Q Q Q Q W Q ) #.#.#.#.O.) p &             ",
"              m k v.R.T.f.e.9.#.+.+.+.+.+.O.` O.%.+.+.+.! i u               ",
"                1 x.N.N.V.u.r.w.w.w.w.q.q.9.%.%.+.) ! ! g :                 ",
"                  z y e v i.z.e.e.w.9.<.8.*.&.#._ i ; ; y                   ",
"                    1 1 l x.2.@.o.o.) ~ ! ~ ! W L u 2 1                     ",
"                          6 = = = = = * * * * % , M                         ",
"                          m 8 8 8 8 8 3 3 2 2 2 9                           "
};
