/* XPM */
static char *_ceb329e85cf431aebad49b0bd333963slD4xxGte81nHXcj[] = {
/* columns rows colors chars-per-pixel */
"60 64 114 2 ",
"   c None",
".  c #000000",
"X  c #080706",
"o  c #070806",
"O  c #080807",
"+  c #0B0B09",
"@  c #0F100E",
"#  c #10100E",
"$  c #151512",
"%  c #181715",
"&  c #171814",
"*  c #1A1916",
"=  c #1D1D19",
"-  c #1F201C",
";  c #22221D",
":  c #252621",
">  c #272823",
",  c #292A24",
"<  c #2D2E28",
"1  c #302F29",
"2  c #2F302A",
"3  c #33322C",
"4  c #38362F",
"5  c #373630",
"6  c #393731",
"7  c #373830",
"8  c #3B3B33",
"9  c #3E3C38",
"0  c #413F37",
"q  c #413F39",
"w  c #3F4037",
"e  c #3F4038",
"r  c #43433A",
"t  c #48473E",
"y  c #47483E",
"u  c #4A483F",
"i  c #474640",
"p  c #4C4B42",
"a  c #514E45",
"s  c #514F4A",
"d  c #4F5146",
"f  c #525146",
"g  c #535349",
"h  c #59574C",
"j  c #5C5A4F",
"k  c #5E5C51",
"l  c #605E53",
"z  c #646256",
"x  c #676559",
"c  c #696659",
"v  c #6D6B5D",
"b  c #706E5F",
"n  c #6E6C62",
"m  c #6F6D6A",
"M  c #716F60",
"N  c #706E6B",
"B  c #747263",
"V  c #787667",
"C  c #7A7867",
"Z  c #71706C",
"A  c #797768",
"S  c #7C7A6A",
"D  c #777671",
"F  c #7B7B75",
"G  c #807E6E",
"H  c #817F79",
"J  c #82806F",
"K  c #858372",
"L  c #888675",
"P  c #8B8977",
"I  c #85847D",
"U  c #8E8C79",
"Y  c #918F7C",
"T  c #93917D",
"R  c #878681",
"E  c #888780",
"W  c #8D8C88",
"Q  c #918F87",
"!  c #969481",
"~  c #999782",
"^  c #9C9A86",
"/  c #949289",
"(  c #9F9D89",
")  c #989791",
"_  c #9C9B92",
"`  c #A19F89",
"'  c #A09F96",
"]  c #A4A28D",
"[  c #A7A590",
"{  c #A9A790",
"}  c #ACAA94",
"|  c #A3A19A",
" . c #A8A79B",
".. c #B1AE97",
"X. c #B1AF99",
"o. c #B4B39A",
"O. c #B8B79D",
"+. c #B9B89E",
"@. c #B0AFA5",
"#. c #BDBBA1",
"$. c #B4B3A8",
"%. c #BCBAB0",
"&. c #C0BEA4",
"*. c #C3C1A7",
"=. c #C6C4A9",
"-. c #C9C7AC",
";. c #CBC9AD",
":. c #CFCDB1",
">. c #D0CEB2",
",. c #D5D3B6",
"<. c #D8D7B9",
"1. c #DDDCBD",
"2. c #E6E4C5",
"3. c #E9E8C7",
/* pixels */
"                                                  | n M B v j C Y %.                                                    ",
"                                            ) k n } ,.1.3.,.o.X.&.[ G Y ! @.                                            ",
"                                      F g M v ^ ;.` G P Y G C M z Y ;.,.} k i R                                         ",
"                                  ' B L h k { Y A C B C S B M v c c B C P P M 2.2.X.F                                   ",
"                              I l C &.2.` u l G S G A M S S M M b x c M k v &.=.U ] >.} Z                               ",
"                          H x M ..>.` L { k k G A S C v A A v b b v x k p v #.G B S C U ] I                             ",
"                        m l } :.T P G G V ` z j B B C C C A v x c x l t x &.` M B S C S L ( N                           ",
"                      n x w } ] C V b V b o.b 1 p v v b v v v x l l a 1 c ] c M B G C B x p b  .                        ",
"                    S #.&.p M S G C c A S A ` l r x a 0 7 6 8 4 t l p 8 K { M B v C C A c 8 K +./                       ",
"                F c o.1.T B p v G C B M v x ` v 3 r ; O X X + X = 8 3 0 P } G C c M B x p G O.` O.I                     ",
"              F x o.Y L S B r h B B v x x u r ; X O . . . . . . . + X * q l C b v b M a h +.A C ^ } F                   ",
"              l } ~ A A B b v t x v v a 8 * X . . . . . . . . . . . . . X = 0 a b c x l o.S b B S T { F                 ",
"            f { P C C B B B C t h u t = + . . . . . . . . . . . . . . . . . + = q u c T O.b C S S B U ..F               ",
"          j ! ;.K B M B B M c c p * + . . . . . . . . . . . . . . . . . . . . . + % a S G M b v C B v Y ( D             ",
"        N q b B c v M B b v x p * . . . . . . . . . . . . . . . . . . . . . . . . . = a c v b v M n x S O.s             ",
"        { q 8 g c v c v v x t % . . . . . . . . . . . . . . . . . . . . . . . . . . . * p v x c v z k k f q R           ",
"      k #.{ x 9 0 z k k b a * . . . . . . . . . . . . . . . . . . . . . . . . . . . . . * a v x x h r J } ] l           ",
"      k #.! o.M z r a h u % . . . . . . . . . . . . . . . . . . . . . . . . . . . . . . . * p k h f O.#.U Y }           ",
"    Q ] U b L o.;.b r r * . . . . . . . . . . . . . . . . . . . . . . . . . . . . . . . . . * r h } ` T A S &.h         ",
"    k #.C B v K ^ O.a % . . . . . . . . . . . . . . . . . . . . . . . . . . . . . . . . . . . % t Y C B S G &.c         ",
"    o.T B C v B C Y t O . . . . . . . . . . . . . . . . . . . . . . . . . . . . . . . . . . . + 0 v C C C B ~ o.        ",
"  _ ,.Y S B B S G f % . . . . . . . . . . . . . . . . . . . . . . . . . . . . . . . . . . . . . * p B G B v G >.l       ",
"  x ;.U S v c n B r O . . . . . . . . . . . . . . . . . . . . . . . . . . . . . . . . . . . . . O 8 c M x x b ~ [       ",
"  p U C S c z c c q + . . . . . . . . . . . . . . . . . . . . . . . . . . . . . . . . . . . . . O 0 c v j l c S #.g     ",
"  ^ p r p j h v p = . . . . . . . . . . . . . . . . . . . . . . . . . . . . . . . . . . . . . . . * u l a g r a U s     ",
"$.` ! L 4 6 8 u 8 X . . . . . . . . . . . . . . . . . . . . . . . . . . . . . . . . . . . . . . . X 1 0 8 c { ] o.x W   ",
"} B ^ ^ T U f 4 4 + . . . . . . . . . . . . . . . . . . . . . . . . . . . . . . . . . . . . . . . X , r Y } o.} [ M g   ",
"-.A A S ] ^ ` 8 % . . . . . . . . . . . . . . . . . . . . . . . . . . . . . . . . . . . . . . . . . $ p &.! C B A B l   ",
";.B M C S n L 6 . . . . . . . . . . . . . . . . . . . . . . . . . . . . . . . . . . . . . . . . . . X u { v B M S M l   ",
";.B n C S v z 6 X . . . . . . . . . . . . . . . . . . . . . . . . . . . . . . . . . . . . . . . . . X u o.b B S B Z l   ",
"<.B B G S b B 8 X . . . . . . . . . . . . . . . . . . . . . . . . . . . . . . . . . . . . . . . . . X p #.x v S M M z   ",
"1.B v c c M B 6 X . . . . . . . . . . . . . . . . . . . . . . . . . . . . . . . . . . . . . . . . . . a #.v l M v x k   ",
";.x j x j x z 6 X . . . . . . . . . . . . . . . . . . . . . . . . . . . . . . . . . . . . . . . . . X u #.B c B l j f   ",
"=.l f B j z f 6 X . . . . . . . . . . . . . . . . . . . . . . . . . . . . . . . . . . . . . . . . . X t X.v c C a f h   ",
"C t t g r t 8 4 X . . . . . . . . . . . . . . . . . . . . . . . . . . . . . . . . . . . . . . . . . O 8 c u r u 6 8 p   ",
"M A K C C S f 6 X . . . . . . . . . . . . . . . . . . . . . . . . . . . . . . . . . . . . . . . . . + 8 v G S B C S s   ",
",...O...#.} v 8 X . . . . . . . . . . . . . . . . . . . . . . . . . . . . . . . . . . . . . . . . . X p -.O.O.{ } X.x   ",
">.A v B J v x 6 X . . . . . . . . . . . . . . . . . . . . . . . . . . . . . . . . . . . . . . . . . O p O.v v M A V x   ",
";.S c v B c c 6 X . . . . . . . . . . . . . . . . . . . . . . . . . . . . . . . . . . . . . . . . . X p O.x v B S B x   ",
"*.M M B v z x 6 X . . . . . . . . . . . . . . . . . . . . . . . . . . . . . . . . . . . . . . . . . X p *.B C B B M x   ",
"-.x v c l x b 8 X . . . . . . . . . . . . . . . . . . . . . . . . . . . . . . . . . . . . . . . . . X u =.B b v v x k   ",
";.c j l l C C 8 X . . . . . . . . . . . . . . . . . . . . . . . . . . . . . . . . . . . . . . . . . X u *.B l x l x j   ",
"&.l a c z B z 4 X . . . . . . . . . . . . . . . . . . . . . . . . . . . . . . . . . . . . . . . . . X r { z l v a x l   ",
"L p q a a k r 4 X . . . . . . . . . . . . . . . . . . . . . . . . . . . . . . . . . . . . . . . . . X 8 B a u p r p g   ",
"j l k l z k r 4 X . . . . . . . . . . . . . . . . . . . . . . . . . . . . . . . . . . . . . . . . . O 8 k z j z l k p   ",
";...#.+.&...l 8 X . . . . . . . . . . . . . . . . . . . . . . . . . . . . . . . . . . . . . . . . . O a =.O.+.+.#...l   ",
"=.B C G V b j 8 X . . . . . . . . . . . . . . . . . . . . . . . . . . . . . . . . . . . . . . . . . O p o.x B v B M h   ",
";.V V B M V l 4 X . . . . . . . . . . . . . . . . . . . . . . . . . . . . . . . . . . . . . . . . . X a #.B v n B V h   ",
"-.V M b b b b 0 . . . . . . . . . . . . . . . . . . . . . . . . . . . . . . . . . . . . . . . . . . X t &.B C K B M k   ",
";.B G B c z z 4 X . . . . . . . . . . . . . . . . . . . . . . . . . . . . . . . . . . . . . . . . . X t o.b b C M l g   ",
"#.b B v l b v 4 X . . . . . . . . . . . . . . . . . . . . . . . . . . . . . . . . . . . . . . . . . X t X.M z z z l g   ",
"&.l j b l c j 1 X . . . . . . . . . . . . . . . . . . . . . . . . . . . . . . . . . . . . . . . . . X t O.v l c p l h   ",
"..h t a a j 0 1 O . . . . . . . . . . . . . . . . . . . . . . . . . . . . . . . . . . . . . . . . . X q U k a x t i a   ",
"p a a a p u 0 1 O . . . . . . . . . o . o . o o . X X . . X X . X . . X . X X . X . X . . . o . . . + 6 p t p a p t i   ",
"o.....O.O.o.B 0 + . . . X . O X o o O O + O + + + + O + + + O + + + + + + O O O + O O O o o o o + O + p #.} { { } ` p   ",
"} v j l v l l 0 + . X X O O + + @ + + @ @ @ @ @ + $ # @ + $ # @ # + $ + # # # # @ @ @ + @ + @ @ + + $ p { j j k j x i   ",
"] l h j z l l 8 @ O + + + @ @ @ @ $ $ $ $ & & & & & & & & & & & & & & & & & & & & & $ @ $ $ @ @ $ # $ u } j h k f z i   ",
"^ h f u h h f 0 # + + @ @ $ & & & = - - - - - - - - - - - - - - - - - = - - - - - - - - & - - & % % * q ^ g l l h t q   ",
"T u u t u u u 8 % @ # % & * = = - : - > > > > > > > > < > > > > > > > > > > > > > : : : - : - - - = ; t ^ h j h h r q   ",
"T r t t 0 t t 3 & $ * * = - ; > > > < 2 2 2 3 2 2 2 2 2 2 2 2 > 3 2 3 3 3 2 3 3 2 < < , , , > > : ; : t ^ t t a u 8 9   ",
"Y r 4 t 6 w r < * * - - > > , , 2 2 3 3 7 w w w w w 7 w w w w w 7 w w w 6 7 8 7 w 7 3 2 2 2 2 2 < , , t L 0 1 8 8 8 8   ",
"K 4 1 4 3 8 4 < - - : > , 2 2 7 7 7 w w w w w e e e e w e y w w w w w e r r e r w w w w 8 7 7 3 3 1 3 0 S q 1 6 4 5 5   ",
"4 1 1 4 6 4 3 7 > > , 2 2 3 7 9 w w e y y y d y y d y d y y y p p p p p p p p p p y y e e e 9 8 8 6 4 3 6 4 1 6 1 4 5   ",
"0 4 1 4 6 6 7 3 , , 2 3 7 8 w w e i d d d d d g d g d d g g g g d d d g d d g g d d p p p y r r e 8 6 5 5 1 1 1 1 1 r   "
};
