/* XPM */
static char *_dfc79fb9c5a432bf0b7d11a4f1ce9f1bZO6o58cXeV5psXL[] = {
/* columns rows colors chars-per-pixel */
"60 64 215 2 ",
"   c None",
".  c #010101",
"X  c #090606",
"o  c #080907",
"O  c #0C0B0A",
"+  c #090807",
"@  c #130C0C",
"#  c #190F0F",
"$  c #13110E",
"%  c #1C150E",
"&  c #190F10",
"*  c #1C1312",
"=  c #1D1A14",
"-  c #161612",
";  c #0F100E",
":  c #231516",
">  c #231C14",
",  c #251718",
"<  c #241D18",
"1  c #2B1B1B",
"2  c #311E1D",
"3  c #24221B",
"4  c #2C231C",
"5  c #2B261C",
"6  c #33231D",
"7  c #352A1D",
"8  c #39291E",
"9  c #3A261E",
"0  c #331F20",
"q  c #2C2B26",
"w  c #2B2824",
"e  c #342321",
"r  c #3A2522",
"t  c #342B22",
"y  c #3D2A23",
"u  c #312E2A",
"i  c #3C2C2A",
"p  c #3C3325",
"a  c #34332D",
"s  c #3D332C",
"d  c #343432",
"f  c #393631",
"g  c #3C3B34",
"h  c #3C3D3B",
"j  c #363A37",
"k  c #2E3434",
"l  c #422C25",
"z  c #432C29",
"x  c #482F28",
"c  c #443124",
"v  c #4B3426",
"b  c #43342A",
"n  c #4C332A",
"m  c #443B2A",
"M  c #4D3B2B",
"N  c #4B3827",
"B  c #52352C",
"V  c #543A2C",
"C  c #593D2D",
"Z  c #433C35",
"A  c #4B3B35",
"S  c #423E39",
"D  c #453935",
"F  c #553730",
"G  c #553C32",
"H  c #5B3C32",
"J  c #513F3C",
"K  c #603F33",
"L  c #3E413B",
"P  c #4C412E",
"I  c #55402D",
"U  c #5B422E",
"Y  c #44433A",
"T  c #49463D",
"R  c #4A483F",
"E  c #4B4231",
"W  c #534434",
"Q  c #5D4432",
"!  c #5C4A35",
"~  c #52433A",
"^  c #5B4D39",
"/  c #58483A",
"(  c #5D513D",
")  c #644334",
"_  c #684636",
"`  c #644A34",
"'  c #6A4B36",
"]  c #634B3C",
"[  c #6C4D39",
"{  c #634639",
"}  c #724E3B",
"|  c #64533C",
" . c #6C523A",
".. c #6B593F",
"X. c #73533B",
"o. c #7A553D",
"O. c #73593E",
"+. c #7D593E",
"@. c #3D4243",
"#. c #4C4B42",
"$. c #464743",
"%. c #514E45",
"&. c #584B45",
"*. c #4F5248",
"=. c #525146",
"-. c #54534A",
";. c #5A564C",
":. c #5C5A4F",
">. c #5B5143",
",. c #5E5C51",
"<. c #585A59",
"1. c #4C5658",
"2. c #664E41",
"3. c #645444",
"4. c #6C5443",
"5. c #6D5B43",
"6. c #695A49",
"7. c #735C44",
"8. c #7C5D42",
"9. c #785A46",
"0. c #605E53",
"q. c #7C6043",
"w. c #796449",
"e. c #646256",
"r. c #676559",
"t. c #696659",
"y. c #6D6B5D",
"u. c #706D5F",
"i. c #796554",
"p. c #6F6046",
"a. c #565E60",
"s. c #596264",
"d. c #676966",
"f. c #716E60",
"g. c #706E6B",
"h. c #747263",
"j. c #797667",
"k. c #7A7769",
"l. c #7C7A6A",
"z. c #75736B",
"x. c #6B7578",
"c. c #7C7B75",
"v. c #757977",
"b. c #616C70",
"n. c #81593F",
"m. c #825D42",
"M. c #846245",
"N. c #8B6346",
"B. c #8D6649",
"V. c #846B4C",
"C. c #8C6B4B",
"Z. c #896648",
"A. c #916847",
"S. c #906749",
"D. c #936B4B",
"F. c #986E4D",
"G. c #9A704F",
"H. c #856D58",
"J. c #8C7352",
"K. c #8A7156",
"L. c #937452",
"P. c #967C5C",
"I. c #997A56",
"U. c #A17F59",
"Y. c #817E6E",
"T. c #877667",
"R. c #8C7E71",
"E. c #9E825D",
"W. c #A1825D",
"Q. c #AB875E",
"!. c #82806F",
"~. c #9B8369",
"^. c #858372",
"/. c #898675",
"(. c #8B8977",
"). c #85837C",
"_. c #8E8C79",
"`. c #918F7C",
"'. c #968779",
"]. c #93917D",
"[. c #A68964",
"{. c #B39268",
"}. c #B49979",
"|. c #AC8F6B",
" X c #757F83",
".X c #798285",
"XX c #8A8984",
"oX c #999683",
"OX c #9C9A86",
"+X c #999685",
"@X c #999891",
"#X c #8F8E89",
"$X c #A19F89",
"%X c #A39380",
"&X c #A89E8D",
"*X c #A4A28D",
"=X c #A9A790",
"-X c #ACAA94",
";X c #A6A497",
":X c #B1AF98",
">X c #B4B39A",
",X c #B8B79D",
"<X c #B9B89E",
"1X c #BDBBA1",
"2X c #B4B3A8",
"3X c #B6B5AB",
"4X c #C0BEA4",
"5X c #C6C4A9",
"6X c #CBC9AD",
"7X c #C5C4A9",
"8X c #CFCDB1",
"9X c #D5D3B6",
"0X c #DCDBBC",
"qX c #D0CEB2",
"wX c #E7E5C6",
/* pixels */
"                                                  ;Xf.f.h.y.:.j.].3X                                                    ",
"                                            @X:.f.-X9X0XwX9X>X:X1X-X^._.oX2X                                            ",
"                                      c.-.g.y.OX6X$Xl.(.].!.h.h.t.].6X9X-X,.T XX                                        ",
"                                  ;Xh.^.;.,.*X`.j.k.j.z.l.h.f.y.t.t.h.j.(.^.f.wXwX:Xc.                                  ",
"                              XXe.j.1XwXOXR e.k.l.^.k.h.l.l.f.f.y.t.r.h.,.t.5X5X_.*XqX-Xz.                              ",
"                          Y.e.f.-X9X*X^.-X:.,.!.j.k.k.t.j.j.y.f.f.y.e.,.#.y.,XY.h.j.l._.*X).                            ",
"                        g.0.:X8XoX/.l.l.j.*Xr.:.h.j.j.j.j.j.y.r.t.r.0.T e.4X*Xf.j.k.k.k.(.OXg.                          ",
"                    ).f.r.h :XOXl.j.u.h.h.>Xy.u #.t.t.h.y.y.y.t.0.0.%.u t.*Xt.f.h.!.j.j.r.#.y.;X                        ",
"                  ).l.<X7XR h.l.Y.k.t.j.k.j.OXe.Y r.=.m f g Y p T e.#.f ^.=Xu.j.y.k.k.j.t.g ^.1X#X                      ",
"                c.y.,X0X`.h.#.y.Y.k.h.h.y.e.*Xy.a Y p l 8 8 8 8 p g a S /.-Xl.k.t.u.j.r.R Y.<XOX<X).                    ",
"              c.e.>X_./.l.h.Y ;.j.h.y.e.r.T Y b y c c 8 c 8 l l l y y p S 0.j.y.y.f.f.%.:.<Xk.j.OX:Xc.                  ",
"            g.,.-X+Xk.k.h.f.y.Y 0.y.f.%.g t < 1 1 9 9 1 1 1 1 1 6 9 1 1 < t Y =.f.t.r.:.>Xl.f.h.l.].=Xc.                ",
"          k.=.=X/.j.j.h.h.h.j.Y =.T Y u @ X X X 8 V 9 @ X X X 1 V 9 # X X X > W L T y.].,Xy.j.k.l.h.(.:Xc.              ",
"          :.oX6X^.f.h.h.h.h.t.t.#.W V 6 O . . . 8 U 9 @ . . . 4 ) 8 # . . . > ) y t %.l.l.h.f.y.j.h.y.].OXv.            ",
"        g.Y y.j.y.y.f.h.h.y.r.#.= M C r O . . . c U 9 @ . . . 7 ` y # . . . > ` l * = #.y.t.f.y.f.f.e.Y.<X=.            ",
"      ).*XY g =.t.y.t.y.y.t.Y - . N U r X . . . c ) l @ . . . 7 ` l # X . . > ' l % . - #.y.e.y.y.e.,.:.=.h XX          ",
"      ,.1X=Xr.h Y e.:.0.y.R E P (  .) r 7 m W | 7.) l e m E ( O.' l e p E | 5.' v 1 p m ^ #.y.t.e.;.Y !.-X*Xe.          ",
"      ,.1XoX>Xf.r.Y #.;.R W `  .O.j.-./ [ 7.q.M.T.<.W [ O.8.8.T.r.W  .O.7.q.H.d.E `  . .| W R :.;.=.,X1X(.].-XXX        ",
"    #X*X`.f./.>X6Xu.Y Y m B V C U -.k G ' ' ` _ ;.h m _ ` ' _ 3.@.s ' ) ` _ 3.$.u _ ) U I C b h :.-X*X`.j.k.1X;.        ",
"    ,.1Xj.h.y.!.OX>X#.b 9 6 9 r l r b x l l l l i b x l l l l i s n l x l l l i n l l r r 9 9 b Y _.j.h.c.!.4Xt.        ",
"    >X].h.j.y.f.l._.Y c 2 @ X O O B _ x & @ O @ v ' B : @ O @ 8 [ B 1 O O @ 6 } B 1 O O O : C v S y.j.j.k.j.oX>X#X      ",
"  @X9X`.Y.h.h.l.l.%.W v 2 X . . . Q o.x @ . . . V m.n % . . . c m.B : . . . 4 m.H , . . . %  .v t #.h.Y.h.y.!.8Xe.      ",
"  t.6X(.Y.f.y.f.j.Y U B 9 X . . . ` o.x @ . . . I m.B & . . . c M.B : . . . 7 N.C 1 . . . % X.n 4 g t.f.e.e.h.oX*X@X    ",
"  #._.j.j.t.,.t.t.S ! V 0 X . . . ` o.n @ . . . I m.F # . . . b N.H : . . . 4 B.H , . . . % o.n e g r.y.:.0.t.l.1X=.    ",
"  OX#.Y R ,.-.y.R ( | C 6 4 p W ..Z.o.n i M ^ p.C.m.B i A ^ 5.V.N.F i m / ..V.B.K r b E ^ ..o.B e m R :.=.=.Y %.(.-.    ",
"2X*XoX^.a g L T g  .u.T Q  .q.J.I.%Xf.7.B.I.W.Q.&XT.4.Z.L.U.Q.}.R.4.m.L.I.Q.}.'.3.8.Z.C.L.P.l.~ Q ! a Y g r.-X*X>Xr.#X  ",
"-Xh.OXoX`.(.=.a a V ;.k Q ' } X.9.z.$.4.S.m.B.m.Y.1.| S.B.m.m.T.s.&.A.N.S.m.H.s.T N.m.8.o.7.a.d [ Q w Y _.-X>X-X*Xh.=.  ",
"5Xj.j.!.=XOX$XL w 9 w 8 l l x n B D A G H H H H A A H H H H H G D G H H H K J S F F B B n n a z l y t #.1X].k.j.k.h.e.  ",
"6Xh.f.l.l.y./.f @ @ c C r * # # # F o.F , * * & F m.H 1 * * * c m.K 2 * & & y 8._ 0 & & # 1 ) C 1 # * T -Xy.h.y.l.g.0.  ",
"6Xf.y.j.l.y.0.f X . U U r X . . . } m.F @ . . . ) S.H * . . . M F.K , . X . 9 F._ 1 . . . = m.V 1 . X T >Xf.h.k.j.h.0.  ",
"0Xl.f.l.l.y.f.g X . I I r X . . .  .m.F # . . . ) S.H * . . . N F.K , . . . 8 G._ 1 . . . % m.C 1 . X #.1Xr.y.l.y.y.0.  ",
"0Xf.f.y.y.f.f.L . . I C r X . . . ' m.F @ . . . Q B.H * . . . v D.K : . . . 6 G._ 1 . . . % m.B < . o #.1Xt.e.f.u.e.,.  ",
"6Xe.:.t.:.r.e.f 7 p ` C 6 3 t p W M.m.B t p M ^ B.m.H t p m ^ M.S.K r i m / q.D.) r t b M ^ 8.B 2 3 5 #.<Xj.r.h.e.:.=.  ",
"7Xe.=.h.:.e.=.f ! O.t.~ V ` q.C.W.'.i.2.M.L.W.{.&XT.4.8.L.W.{.}.R.4.9.L.E.{.}.(.3.X.V.J.I.~.T.~ Q ' | R :Xy.t.j.#.=.;.  ",
"j.R T =.Y T h a M V <.k ! [ X.o.o.Y.1.7.D.D.S.B.'.<.6.D.S.B.S.R.b.>.F.S.S.S.P.x.%.B.m.m.+.w.b.f X.' ) g t.R Y R g Y #.  ",
"h.j.^.j.j.l.=.a r 8 q e l n n B F D D G ) K ) K ~ D F K ) ) K ~ D F K K K K J D V H H H V n s i n v c g y.!.l.f.j.j.%.  ",
"9X-X<X:X1X-Xy.g * # y B r * * : : n } F 1 , , , n o.H 2 , , , x } _ 0 , , , r } _ 0 : : : 1 H C 1 * = #.5X,X,X-X-X:Xr.  ",
"9Xh.y.h.!.y.r.g X . I C r X . . . X.m.F @ . . . _ D.H * . . . N F.K , . X . 8 G._ 1 . . . % M.V 1 . X #.,Xy.y.u.j.j.d.  ",
"6XY.t.y.h.t.r.a X . I C 9 X . . . ' m.F # . . . { S.H * . . . N F.K , . . . 8 G._ 1 . . . % 8.C 1 . X #.,Xr.y.j.l.h.e.  ",
"7Xf.f.h.y.e.r.g o . I C r X . . . ' 8.F @ . . . Q S.H & . . . v D.) , . . . 8 G._ 1 . . . % m.C , . X #.7Xf.z.h.h.f.e.  ",
"7Xr.y.t.e.e.f.g 3 3 U V 9 = 3 5 p 8.8.B 1 4 t m 9.B.H 1 4 t m 9.D.K 0 4 t b  .D._ r < 4 t M +.V 1 = < T 7Xh.f.y.y.e.,.  ",
"6Xt.:.0.0.h.j.g ! 7.p.~ n Q ..C.W.~.i.{ 9.J.W.{.}.H.{ 7.J.E.{.}.T.2.4.V.I.{.}.P.2.] w.J.I.[.H.~ B ^ | #.7Xj.0.r.e.e.:.  ",
"7X:.=.y.e.j.t.f M C a.j ! X.X.o.+.).<.w.F.D.D.D.'.b.5.F.D.F.S.R.x.3.F.F.F.S.R..X>.A.B.N.m.i.x.S X.X.` T *Xe.,.y.%.r.0.  ",
"^.R Y #.%.:.Y s 9 l u 5 l n B B C S f F _ _ _ _ &.S F _ _ _ _ / S n _ _ _ _ / S b ) ) C C G f t v v l g h.%.#.#.Y #.=.  ",
":.,.0.,.e.0.Y f = # 6 B 6 , : , , x _ B 2 1 2 1 n [ H 0 1 1 1 l [ ) e 2 2 2 y _ _ r 1 1 , 1 B C 2 : , g ,.e.,.,.,.,.#.  ",
"6X>X1X<X<X:Xe.f X . V V e X . . . _ 9.F @ . . . ) N.H * . . . N F.K , . . . 8 G.) 1 . . . : n.V 1 . X %.7X,X<X<X1X:X0.  ",
"5Xh.j.l.j.f.:.f + . V V 6 X . . . _ 8.n @ . . . Q B.H & . . . N B.K , . . . 8 D.) 1 . . . % 8.V 1 . o #.,Xe.f.y.j.f.;.  ",
"6Xh.j.h.f.j.e.f . . V V r X . . . ` o.B @ . . . Q N.H * . . . v S.H , . . . 6 D.) 1 . . . % +.V , . + #.1Xh.y.y.j.j.;.  ",
"6Xj.h.y.h.y.y.f % % V B 6 $ $ = <  .o.n < = = 5  .N.B 1 - < 5 ! S.H 4 - = 4 G D.) 6 $ % 3 t o.B 1 @ - R 4Xh.h.^.h.h.,.  ",
"6Xj.Y.h.e.e.t.f W ..| A y I ..w.I.P.7.F ] V.P.{.|.V./ ' w.I.|.{.H.Q ` w.L.|.|.L.) W 7.V.L.E.w.G c ! ! T ,Xu.u.j.u.0.=.  ",
"<Xy.j.t.,.h.t.g N I r.@.! ' X.X.o.XXs.9.D.S.D.S.oXx.6.F.F.B.S.'. X6.D.D.D.A.R.XX;.A.N.M.+.i.v.$.X.' ! T >Xf.e.t.e.:.=.  ",
"7Xe.:.y.e.t.:.a 7 8 a 3 y v B V C T d F _ ' _ _ &.g G _ ' _ _ &.h A ' _ _ _ &.$.b _ ) ) U W j t B n v T ,Xt.0.y.#.e.,.  ",
"-X:.R =.R ,.Y q > : 1 v 6 1 1 1 1 l ) n e e e e z _ H r e e e y ) H r r e e r Q ) r 0 1 1 6 n B 4 , < Y _.0.%.e.Y T %.  ",
"R =.=.R R R f a o . N v 6 X . . . ! X.n & . o . ) m.F * . X o N N.H 1 . o . 8 B.Q 1 . X . > o.B , X o f R T R %.#.T $.  ",
">X:X:X<X<X>Xh.Y + . M V 6 O X X o ! } B * o O o Q m.H : o O o M Z.H 1 o O o y B.) 1 o o o > o.B , X $ #.1X-X=X=X-X*X#.  ",
"-Xy.:.0.y.t.e.f + X N n 6 @ o o o ) o.n = O ; O ` M.F < O ; O M Z.H 1 O $ O p B.K 4 ; O + 4 O.M 1 O $ R -X:.:.:.:.e.$.  ",
"*Xt.-.:.e.e.0.g $ $ B N 6 - - > > '  .x 4 < 3 3  .m.V 4 = 3 3 ` N.H e 3 3 3 P A.K e = 3 = p o.B 4 - = R -X:.:.:.;.0.T   ",
"].-.=.R ;.=.=.Y P | ^ b r b ! p.K.J. .B ^ p.J.[.[.8.H W p.K.[.[.V.H G 5.V.~.[.V.Q B | q.K.J.7.n y P W Y OX=.:.0.;.T S   ",
"].=.R T T R R g N V r.@.I '  .X.o.XXs.5.B.B.C.A.+X X6.D.B.C.B.'..X6.S.B.C.C.~.#X:.Z.M.m.q.V. XT  .' ! T OX:.:.:.:.Y h   ",
"`.T T T Y T T a 8 8 d 3 c v v V C #.d V _ _ ' _ &.h V ' ' _ ' >.@.b [ ' _ _ ;.$.p ` ) ) U W @.e V B v R oXT R #.R g h   ",
"_.Y g Y f L Y u > > 1 y 6 6 6 e r i V n i l z i z H F z b l z l H H y b z x z V ) y y r r r l v 2 6 4 Y /.Y a g g S g   ",
"^.g q g a g a q 3 3 N v 1 q u a a  .' x D L Y L 7.8.F b Y L L 3.n.F s Y Y h >.m.H i h g f E X.B 6 u u Y l.Y u a a a d   ",
"f u q f f a a a w 3 N v 6 u f j g ..[ l S R #.$.7.m.B D #.$.#.5.M.V D R $.#.3.M.Q i R L L T X.v 6 f a a a a a f a a d   ",
"L f a p d g f a q q M v 4 a L L Y 7.' v Y =.-.*.9.o.B S -.*.*.p.n.V Z *.=.*.6.M.I p *.$.R ^  .N e L g d a u u u q a Y   "
};
