/* XPM */
static char *_88b6c2294be4c8ea6afb8b9c29679078voDCUjei2HTXqKd[] = {
/* columns rows colors chars-per-pixel */
"64 64 67 1 ",
"  c #3A7719",
". c #3E7A1C",
"X c #3F7A20",
"o c #437D1E",
"O c #447E21",
"+ c #487F23",
"@ c #46811F",
"# c #48821F",
"$ c #468121",
"% c #4B8423",
"& c #4E8924",
"* c #4D8629",
"= c #4F8829",
"- c #508725",
"; c #528B25",
": c #538C25",
"> c #538E24",
", c #528D26",
"< c #548C24",
"1 c #568E25",
"2 c #548D27",
"3 c #588F27",
"4 c #518728",
"5 c #518B29",
"6 c #548B28",
"7 c #558D28",
"8 c #528A2C",
"9 c #548D2C",
"0 c #588F2C",
"q c #559025",
"w c #569024",
"e c #579126",
"r c #599227",
"t c #5B9327",
"y c #599427",
"u c #5A9426",
"i c #579029",
"p c #569228",
"a c #57902B",
"s c #59912A",
"d c #5B932B",
"f c #5B9429",
"g c #5C9528",
"h c #5C9628",
"j c #59922C",
"k c #5A932E",
"l c #5C942C",
"z c #5E962D",
"x c #5D992B",
"c c #5F992D",
"v c #578E30",
"b c #5B9230",
"n c #5C9331",
"m c #5D9531",
"M c #5F9830",
"N c #60972C",
"B c #609B2D",
"V c #61982E",
"C c #619A2E",
"Z c #629A2E",
"A c #639B2E",
"S c #629E2E",
"D c #639C31",
"F c #649E30",
"G c #67A032",
"H c #69A133",
"J c #6BA435",
/* pixels */
"%sfso3s%2t%&<#gf,og6-,ho2-&zu2$C&,;ro2--cf%%F$331o3&2xh$;No33<@2",
"#f,S-#h%11-o%#g,S#-ho23%#-Oh,co,go23$#%&sugor2O21#$$22c9#r-&21#o",
"u%$&2#&&s%+o$e%%21o<<g+$.;3%$,,$-33+O 1<#%<&$-s-$o.r&#&2#%;z&$o ",
"x@#$g&%-%$+ ifo$%r;+;$+o.h2oo<<,+;%+ooS@#o,,2$2%$o#C##or<%$-$$.%",
"J,&o2i#oo*7ofS,%$2gooo29oCz2#%<iooOa&#Giso;<2oOOs$&H,7.;2-oO$3O%",
"&m%o%%,&O9$oC,m$o$-2&$9O#N9n.#@;7$%8O&fi9o@$,7O4*oiij5o$#-;o2*oC",
"om#%7$c%.O#5s%mo9%&CoOO$7s$jo9%9loOX%a&79ojO22oO.%z%b%%0#x&.Oo;z",
"79Oi4;2.oOh9O7*$z%2% o$m&$j*$j-3& o%m%%j$-0-2# o7hO40O99;2o.os9O",
"*OO-++o$Os9#O&O@;O%OOOz%$O4O%%++oO$z$%O&.%%+O+O%cO$O%.-$+O$O;j$$",
"sO%%-95+$%$&c9$%%%94O$%$9D%%%2%9%O%%OjN%%%;&9%O%%$zN%4$-%9$O%%OF",
"2$+C35N$;%OOC5%$D47hOs$$$C%%%D%n7OsoO%C%%5F%h;O2oO3s$%7z-m%%,OOz",
"j%O7%%Os&%$j%j$O0%%%s%$%3;jO+v$$&7&$;2;2OO9+$2,<O7295O24%Os;%Os,",
"C%%;&g#;,;%x,h$%3&zo;<2$N&s$$2;hof&%;g,<%%1;sor%%7se&&%-3;$r;$g;",
"$g0z+;g$;r;%;$hsgo32%1g#&&&Ns2oC;&1go,%%zz2$C$<2so,%;gh%&C$;2,$;",
"%g;c,#g$;<%$%%g;C#;sor2%o%#h,x#,7$e2$o%<3jco2,#2,$#%2,g2os&-11+o",
"h%$$2#-,uo% #s$O&2@%23o$ ,3$#&<#%s9oO.r<$$2%<%g-$o r;$$3#&&g@$..",
"C#$#u,%%$$$.sho$%r2$,+$$oC,#o;22O%$$$$S%oo329O%%$o%S$$or2&$%%%.%",
"Gr7.,2$oo*lohDs%o2sooo72oCCs#O,2OOOj%$Fsso&,,oOOj$;H7so;2%oo%jo,",
"#m$o&#22O5O$C;nOo$$s%O5O%C%n.$$&s$%*o7s79.%O2s+4$os,b*.%#<eO5+oD",
"$m$57%CooO$76%mO352goOo%7599Oj-r2oO.,7;95#g$s< Oo77&n%%0%x% Oo2s",
"94og%-;oo$z2O7%$g*2%oo&l%O3OO3%2$oo2j$$9o-7%;$oo9sO%9O7;%;ooOj9.",
"%OO%+%oOOs&$O5OO%O+oOOz$&O5O%%++OO%g$&$5o$%+O$O%j$%$$O&$+OOO;7$%",
"j+*%;99$$%$%F9$*;;07O%%O5D;%%9-n;O*$$sV%*%34n%o;$Ozz$5%95j$O*O$F",
";%OC9-j%9%O+h&%OD-9j$7$O%z%++F%22Oso$&j%+*C%3;O2o+7s%$jj%j;%7OOh",
"z%$7$%Or&$$C%hO$3+%%s%$<h%l+$3$$%g#@;j-3O&7O+;,&O32;5O-;%+r,$Or;",
"u%5;&g;-22%g,s&%9OCo;<2$h-7-&2;Co3,2&g;2;%,;sor<;;rr-;-;s7os2<3;",
"Ohsc+-N&-3&$&#c7Co3l%-h$$&#Cssos7;%go&O-cf;oC&%13O&$2fc$$C&-2;+;",
"%2&h,#3$3,&o#&i;h%%3#r2%o&&3,x#&7$s&@o&2,ig#;<-2<+o&,;u2$3%;,;o.",
"h$$$r#%23oO Os#$;2@%s2+O 2eO$&,#%j&Oo r,o$2&%%z%O..g%o$r%%;j#+..",
"G###fe$$$$;ozz$$&3so%$%%oxi$o,r2O%+%%#S$@or,9O%+&o%S$&og,*O%+&o&",
"Ss9.&,%#o57ohSj%o&2#oO0%oCCz$#&2Oo$b$#FNzo;%;oo$jO;Dsj &2&Oo*so<",
"oz$o%#s,+2OOC$z.o&#s-$*O;u%i.$#&z%%$O3r79 %o2z%%OoC&j@o&#,3O,OoC",
"*m%70-ho..&3;5n$b5;s oo29$78+m-s, Oo77%b9%n%h& Ooj5%l%*b&hO.X$j5",
"4%os%%-oO&b%.6$O3%-$oo;j$O9OO6%%$ooi7o+9o$9%-oooj;o%5o64%%OOOj&o",
"5$O$+%OOO7;%%5O+%O%OOOs$2%;O%%O%oO+j#=%=O$++OOO%s$5%%O;$%++O;9$;",
"s$*779N+%%O$F9%%3;bjO-$+%H&*%z;n7O;O$iG$4%N*D-O5OOzD$5$s5N%O$OOF",
"%%Oz5%9-&%O%s;$OC4*9$7$O%s-%oF+43$ro$&7;O%N%52$ro$;3%O60%;2%2O%s",
"C%+5%-os,%OF&hO$3$-o3<$;F%lO%2$;$g%$9s%iO%7%%&s@$j37;+-;%@,3%$z2",
"s;,;#g-&rs$s;2;&r$C$22g$r;;;;;&Co3;;$r2;22--Cor2;-r2-9;$3jor2&;2",
"ohiC$&N$&u%$&OcrNo2No-g$$;OCshors%,h$&$&Cg3os;%2so&o7gc;+N$<22o%",
",,%s,%2#j&%o%,,%l2$2#g$%o%2,&u@&2&r&$.,,&,u%;,;2$#o,;%e2$2%22<o.",
"h#$$r#%27+O &r$$#2&%s;+o 21o@&e%%s-oo h&oo2&%%3$O.oh%#or<%27o$.o",
"F%%$r,%$+$;osc$$-rso$O-;oCj%o&,eo%O%%$F,&o2w7oO+2#&H#&or;&o$O2o%",
"hN4.&<&#o9*ohCN%o#1@$O9$$CbN@#%,%o$9$%Fsho#%2$O%vo&Sjso$%2#o;9o2",
"omOO%of9O%O%C$no$&%z%+%O;g%9.-O%C+OOOs795.4O5NO%O$C%s%O9#iiO%O$D",
";n$s7,f ..;9%70$g5,r oo35&09$m-j- Ooz4$b*%N%h+ O$j%&n%=v&go.O%s%",
"%%o7%%$oo;j$O=OO3+%$+o79#.5O$7+*$ooz&oO5.<;%%$O+C%o%*.;;$$oO%j%o",
"7$+O+5O%O7&%,9O$O+*$OO7$952O$$+*oO%3Os5&O$O$%OO%9$75%+O%%$OO9&%3",
"7%*is9C+$%OOH;%%z;blO2$O%H;$%N;V,OsOO2S#5%F%A2$2oOjco57l;D%$,OOC",
"5%oj-%-22%O-27%oz%$5;2$%475$oz+%2<,o%222O%l$%2%,o%;95O;9+%7&-o*3",
"C$%;-7o22%$A%hO%3%2o3%%%C%NO%3&,ohO%5g%2+%3%%%t%%s27%@&<5$2r&$N-",
"2;97Og3&2r%22,797$N&-;hO2253,,$c$6<r+s&1j6-%CO212$r;12;&9jo32--7",
"oheS&$N#&r&$;oh7C#;g+;r%#&#C2Coqr$;r$#$&Nhjos;%2ro$$ruC,oN;%22o@",
"e;$,2$,$g%%.#,&&<2@;%g$%.%1%%r&%;;r#$.22%%r%%-3;&O.7,%&2#-$g#<o.",
"ho$#g#27-OO 2soo&r%O7;OO s2o@<<&%3%+o.x%oo3&;%7%oooN#$or2-%2$O.#",
"H;&o32@oO%2ogC2#$rsoOo25oSh2o&<io+o5&@Fr,o222oOO3$&H&,o22&o+$io&",
"em;o$2%;o0*ozim$OO2-O$0+$Csno$$7%O&7O&cs0.$;;%o;8o,fj9o%%<&o9*os",
"omOO2$h%O$o;zOmo%-&h$OOo9j%7o9$%CO+oOj,95O9$7sOOO%z%0%o9@r2o+o%C",
"79+s7;s..o3s$98$l47, ooz;$z4$z*3%.o$D%$l%-v4rooo%z$;b+70&go.o,j$",
"%Oo;++O$O29$o&Oo;+%O$oh5$O-o$4+%oo+g%oO4 --O$$o$c$O+*.;%@Oo+;j#O",
"j$%$%4%OO5$-j7$$O$9%OO5%9s,$%%%8$O%5O9s&%%%%=%X%&$js$%$%*%$O$%$D",
"7$%m39DO2%OoF;%%D;jlO7O$$A%*%F%n7O3oO;F$%%D%C5$iOXsc+%9z-D%$2OOc",
"9-O3$%$s&$%9;74og%$%7&@%;,s$Oh+$;95O%;,7O;9$%9&&O;;;5O;9%$i&2o9;",
"CO+92s$,7%$D$hO+2&s#s&%%C%sO%s%ros%%7h,,$%7%;Of%%ss7&O-;7%%7;$N%"
};
