/* XPM */
static char *da2e999b7ae045c9e8704e8702bb289eKiH7IrWhquHDHWfz[] = {
/* columns rows colors chars-per-pixel */
"51 64 199 2 ",
"   c None",
".  c #37241F",
"X  c #0E2F2A",
"o  c #0F362A",
"O  c #16352C",
"+  c #1C352A",
"@  c #123D2D",
"#  c #1B3E29",
"$  c #103630",
"%  c #183732",
"&  c #143D31",
"*  c #1C3D33",
"=  c #232C26",
"-  c #2C2B23",
";  c #2B2E28",
":  c #342923",
">  c #392B28",
",  c #33322A",
"<  c #203E37",
"1  c #2A3A31",
"2  c #323631",
"3  c #40271F",
"4  c #4E271E",
"5  c #402721",
"6  c #482722",
"7  c #4B2A25",
"8  c #4E2F2D",
"9  c #472A26",
"0  c #532D2A",
"q  c #502B25",
"w  c #4E312D",
"e  c #53312D",
"r  c #5B352E",
"t  c #5E3C2D",
"y  c #4F3534",
"u  c #563232",
"i  c #5B3531",
"p  c #593B33",
"a  c #653B2E",
"s  c #633B34",
"d  c #6B3D37",
"f  c #653B39",
"g  c #6B3C38",
"h  c #14412E",
"j  c #1B462A",
"k  c #1C5D2F",
"l  c #164234",
"z  c #1C4335",
"x  c #174B35",
"c  c #1A4A35",
"v  c #164439",
"b  c #1B453C",
"n  c #1B4B3C",
"m  c #17493D",
"M  c #1D533D",
"N  c #1E5A3E",
"B  c #214436",
"V  c #214D36",
"C  c #22453A",
"Z  c #234C3B",
"A  c #294C3C",
"S  c #265234",
"D  c #2A5137",
"F  c #22533C",
"G  c #29543E",
"H  c #225B3E",
"J  c #2A5E3E",
"K  c #307B2F",
"L  c #23633E",
"P  c #2B663D",
"I  c #236D3F",
"U  c #296B3E",
"Y  c #30693E",
"T  c #26733F",
"R  c #2A733E",
"E  c #24783F",
"W  c #2B7D3E",
"Q  c #34733D",
"!  c #317F3D",
"~  c #3F7F3D",
"^  c #66422B",
"/  c #6C412E",
"(  c #654234",
")  c #6C4134",
"_  c #684A36",
"`  c #6E4439",
"'  c #6A4A3E",
"]  c #64403A",
"[  c #724435",
"{  c #744935",
"}  c #7A4C35",
"|  c #73473B",
" . c #74493C",
".. c #7B4D3B",
"X. c #7F5037",
"o. c #7D553A",
"O. c #1A4C40",
"+. c #1E5341",
"@. c #1E5B40",
"#. c #2B4E41",
"$. c #225541",
"%. c #2A5442",
"&. c #235C42",
"*. c #2C5C43",
"=. c #265F49",
"-. c #335446",
";. c #345948",
":. c #1F6F41",
">. c #1F6143",
",. c #246443",
"<. c #2B6343",
"1. c #256B43",
"2. c #296D44",
"3. c #266248",
"4. c #276E48",
"5. c #296B48",
"6. c #336443",
"7. c #316D43",
"8. c #267244",
"9. c #2A7344",
"0. c #277B43",
"q. c #2C7C44",
"w. c #267148",
"e. c #297248",
"r. c #2D7A48",
"t. c #317546",
"y. c #317D46",
"u. c #327649",
"i. c #327E49",
"p. c #6C4941",
"a. c #7F4E40",
"s. c #785A41",
"d. c #814F3C",
"f. c #82543B",
"g. c #84593B",
"h. c #8C583D",
"j. c #905E3F",
"k. c #81603F",
"l. c #844F41",
"z. c #8B5740",
"x. c #885B43",
"c. c #8F6243",
"v. c #896448",
"b. c #916242",
"n. c #9D6741",
"m. c #9C6B44",
"M. c #9D6B48",
"N. c #9C7048",
"B. c #A46C49",
"V. c #A17147",
"C. c #A6744A",
"Z. c #A9774D",
"A. c #2E823E",
"S. c #2F8B3A",
"D. c #398537",
"F. c #31843D",
"G. c #338C3D",
"H. c #3B813D",
"J. c #36923D",
"K. c #3A953D",
"L. c #3D9C3E",
"P. c #3EA23C",
"I. c #409F3D",
"U. c #44AD36",
"Y. c #48AE37",
"T. c #42A43D",
"R. c #44AB3A",
"E. c #49AD3A",
"W. c #47B236",
"Q. c #4AB535",
"!. c #4BB835",
"~. c #47B239",
"^. c #4AB23A",
"/. c #2E8242",
"(. c #2F8842",
"). c #2F824B",
"_. c #328444",
"`. c #388740",
"'. c #328942",
"]. c #338945",
"[. c #348D44",
"{. c #368E46",
"}. c #348B44",
"|. c #398E44",
" X c #358549",
".X c #348449",
"XX c #368B49",
"oX c #388B48",
"OX c #369142",
"+X c #369243",
"@X c #399641",
"#X c #3A9442",
"$X c #3E9A42",
"%X c #3D9D41",
"&X c #3D9A42",
"*X c #3FA140",
"=X c #419F41",
"-X c #409545",
";X c #42A241",
/* pixels */
"                                                                                                      ",
"                                                                                                      ",
"                                              6.      %.                                              ",
"                                            6.9.c   <.,.B                                             ",
"                                    B S ~ j U  XY Q r.1.H P t.G                                       ",
"                                  F ,.k T.K R  XF.L./.9._._.i.,.    D                                 ",
"                            *.<.  N 1.8.K.T.'.0.#XE.F._.].0.q.9.L L u.V                               ",
"                          # 2. XR 9.! T R -X{./.L.;Xq.q._.[.#X0.q.).2.c                               ",
"                        H.D.F.'.{.}.L.K.T _.OX+X%X$XW W K.L.G.'.q./.'.`.Q                             ",
"                    G L ! T.P.G.+X{.'.@XL.G.L.L.P.I.G.R.R.L.OXq./.#XL.$X].P V                         ",
"                    G 1.8./.$X;X=X[././.$XP.R.^.R.T.W.W.R.T.L./.].{._._.r.9.,.z                       ",
"                    F ,.1.1.W K.@X[.{.#XL.R.R.W.W.W.W.U.U.W.^.L.L.;XA.1.1.1.9.<.                      ",
"                D 7.t._..XG.L.R.L.&X%XT.Q.W.W.Q.!.!.Q.W.Q.W.R.%X@X@X{.{.@XOX+X'.9.J B                 ",
"              V c 1.r..X{.L.T.P.S.K.T.R.Q.E.R.U.W.!.W.W.E.P.&X@X{.]._.'.#X_.9.9.9.1.G                 ",
"              $.1.5.1.1.I W J.J.L.T.P.L.L.L.R.!.W.W.W.W.T.L.L.T.I.K.0.8.9.1.,.,.N +.c                 ",
"              F ,.1._.K.K.T.E.R.L.@X@XL.L.R.W.W.~.W.W.Q.R.&XL.K.T.^.L.W _._.q.r.9.5.U 6.              ",
"          b c M N L G.E.^.T.OX[.'.A.@X*XT.E.^.R.R.^.T.L.E.R.L.J.OX@XG.0.9._. XXXXX9.N G               ",
"          H r._._.}.|.@X&X[.0.W J.E.E.;X@XL.T.P.R.W.T.K.L.E.T.T.L.@XK.K.A./.q.9.1.1.1.L c             ",
"        V u.y..X@X=XT.%XG.G.J.P.^.^.T.@X@XT.T.P.T.^.R.L.+X+XL.T.R.^.R.T.P.P.L./.q.9.1.9.1.;.          ",
"      G n M N N T ! F./.0.;X^.^.~.*X[.].G.P.P.T.R.T.T.P.@X{.'.K.P.E.!.W.U.R.T.$X_.R 1.&.l *           ",
"    C l M N 1.&.I q.8.8./.$XK.L.@X{.]./.&XP.&XT.U.T.P.P.$X{..X/.[.K.R.^.Q.R.[.]._.1.N M v z           ",
"    %.F <.1.1.9. Xq.W _.$X@X[.#X$X+X].G.R.L.#XI.^.;XL.R.I.[.OX].0.q.|.+X&XK.0.9.q..X X X9.F           ",
"        F 1.i..Xr.W @X%X$XG.$X;XL._.G.E.Y.L.OXT.!.T.$XW.R.K.@X$X/.8.q._.{.$X'.8.8.q.XXXXXXu.          ",
"      A <.i.9.L _.#X%XF.W K.;X$XW :.L.!.E.&XOXE.!.T.@XW.!.T.{.%X$XA.8.9._.+X$X_.1.,.L 1.9.,.Z         ",
"    $.F H &.,.,.T T 9.I 0.$XG.q.1.0.P.W.P.+XOXY.!.T.{.&X~.^.@X#X=X'.1.1.9._.{.0.,.1.,.M M $.$.G       ",
"  -.c l l @.8.1.,.,.1.q..X0.9.1.1.G.^.R.OX{.[.U.!.T.}.[.J.R.K./.@X=X/.0.1.8..X_.8.1.1.4.,.M M n       ",
"    o h M w.9.1.1.y.XX.X8.1.1.1.q.K.K.OX&X#X0.L.W.T.[.$X/.G.T././.[.L.K.A.9.1.y.XXi.9.5.1.9.1.%.      ",
"  -.F 1.9.1.>.9._.XXXXq.1.1.1.r.+X'.1.|.T.@Xq.W E.=X@X=X[.0./.0.8.w.}.K.T.#XL L r.5.,.N ,.1.1.G       ",
"    z H 1.&.,..X X Xr.1.,.,.9.XX.X8.1.K.T.'.8.q.I.G.$XT.#X8.8.8.8.1.0.}.'.9.1.&.N n b b M ,.,.h       ",
"  z @ H &.c M 1.1.1.,.1.1.1._.XXq.1.'.P.T.F.1./.$XE #XT.%X/.1.8.8.1.8..X Xr.1.,.1.&.c b b M ,.&.$.    ",
"#.F M $.n @.1.5.1.&.N 1.1.9.{.}.1.L G.P.T._.1.0.'.8._.=XT.F.1.8.8.1.1.1.q. Xr.9.1.5.L +.m n M $.F #.  ",
"    C l &.e.w.1.,.N 1.8.,.9.{. X1.1.|.T.L.9.1.9.q.1.8.'.I.#X8.8.9.e.1.1.,.1. X X9.1.5.5.,.,.M & b     ",
"  C &.,.8.9.1.M N 1.8.1.1. X X9.1.1.[.P.'.,.1._.XX9.1.9._.%Xq.1.8.9.1.1.1.H H 1.1.,.1.1.8.8.1.,.%.    ",
"-.%.H ,.1.1.+.M 1.w.1.&.&.i.9.,.1.9.W |.I ,.9.}.|.9.1.8.0./.#X2.1.1.1.1.8.1.+.b n M &.,.,.1.1.,.&.#.  ",
"  z @ c &.M M 5.w.,.&.n c &.1.1.1.q.q.y.1.,.y.XXoX9.M 8._.9.q.r.1.&.&.&.,.1.&.n $.M n M n & z z b     ",
"  -.$.=.M l z n M n b b &.1.8.1.1..X.X9.1.N 1.XXXX9.M 1.}.q.1.9.1.1.M b @.1.5.&.M &.H @.$.*           ",
"    C b *   < l b b b M 1.8.1.&.L XX}.9.,.M &. X X1.M 1. X].1.,.1.1.,.n c M M x +.n $.1.,.&.%.        ",
"            Z &.&.b M 1.e.8.1.M H }.}.8.1.+.&. Xi.,.M &.9. XL &.1.1.8.1.c +.&.n l b b &.,.,.&.%.      ",
"          &.3.,.M & &.9.8.1.&.b $.XX X8.1.+.&..X9.1.+.n ,.e.,.H 1.1.8.5.M b &.1.N & C C b F F &.G     ",
"        $.3.=.$.& & 1.9.1.M n b &.9.1.8.,.n @.5.1.1.M n ,.1.1.M M ,.1.9.1.+.+.,.,.&.          %.A     ",
"      %.&.$.z C   M 9.1.M b b b n @.1.5.&.c &.1.8.1.M b M 1.8.,.b &.1.5.9.M v Z ,.1.*.                ",
"        B       *.5.1.N n b & v n L 9.,.O.b $.1.8.9.M b M ,.8.1.b n N 1.8.1.c C n n 3.=.Z             ",
"                $.n M ,.&.b O l M 9.,.n b n b 1.9.1.n n &.n 1.1.+.+.@.M N 1.H       %.M Z ;.          ",
"                  z =.,.M C * b 1.1.l b F $.b 1.8.N b n &.M M 1.,.+.&.M l M 1.*.                      ",
"                A &.,.M     C n 3.b $ v M ,.M 1.8.&.b c M =.n x &.n $.1.n @ z F ;.                    ",
"                V &.n Z     c &.n & X b ,.,.M N 1.@.$.& c =.,.c x n c &.,.n                           ",
"                %.%.      b &.&.b C % b ,.1.M h H M &.o o $.1.,.c * C c &.3.%.                        ",
"                          n 3.&.C     b ,.1.n & H $.,.O = b H 1.F       b &.&.B                       ",
"                          V ,.Z       C &.1.n O l +.,.+ . = c &.&.%.        C %.                      ",
"                          n &.#.      C ,.,.* - O +.,.+ 3 : % n ,.,.Z                                 ",
"                          %.          1 F M = : = Z F ; 7 9 2   %.Z C                                 ",
"                                      > + * - 6 : z # > e u p       #.                                ",
"                                    y 8 , ; 5 q e , , u f f s r                                       ",
"                                ( r s i u 8 0 u f e e f  .d.d g |                                     ",
"                              s.c.[ r i d g s f  .s s ) [ b.g.r s '                                   ",
"                              ( a p e ) l.a.a ` z.[ } x.s ) N.c.a                                     ",
"                                    v.M.h.f e | B.{ } C...0 X.C.n.)                                   ",
"                                  k.C.h.{ w   ^ Z.{ 4 m.b.e   ^ f.`                                   ",
"                                _ g.{ t       o.n./ 7 g.V.)                                           ",
"                                  p.          x.f.'   ( j.[                                           ",
"                                              ( ]       (                                             ",
"                                                                                                      ",
"                                                                                                      ",
"                                                                                                      "
};
